<svg width="18" height="18" viewBox="0 0 18 18" fill="none" xmlns="http://www.w3.org/2000/svg">
<path d="M16.6377 8.87724L9.84548 2.08857L9.39021 1.6333C9.28648 1.53025 9.14619 1.47241 8.99997 1.47241C8.85376 1.47241 8.71347 1.53025 8.60974 1.6333L1.36228 8.87724C1.25599 8.98312 1.17198 9.10922 1.11522 9.2481C1.05846 9.38698 1.0301 9.53582 1.03181 9.68584C1.03884 10.3046 1.55388 10.7985 2.17263 10.7985H2.9197V16.5237H15.0802V10.7985H15.8431C16.1437 10.7985 16.4267 10.6808 16.6394 10.4681C16.7442 10.3637 16.8271 10.2395 16.8836 10.1028C16.94 9.96616 16.9687 9.81964 16.9681 9.67177C16.9681 9.37294 16.8504 9.08994 16.6377 8.87724V8.87724ZM9.98435 15.2581H8.0156V11.6722H9.98435V15.2581ZM13.8146 9.53291V15.2581H11.1093V11.2503C11.1093 10.8618 10.7947 10.5472 10.4062 10.5472H7.59372C7.20525 10.5472 6.8906 10.8618 6.8906 11.2503V15.2581H4.18533V9.53291H2.49783L9.00173 3.03427L9.40779 3.44033L15.5039 9.53291H13.8146Z" fill="#8C8C8C"/>
</svg>
