<svg width="101" height="37" viewBox="0 0 101 37" fill="none" xmlns="http://www.w3.org/2000/svg">
<path d="M12.2786 6.56274H10.1395V7.63233H12.2786V6.56274Z" fill="black"/>
<path d="M12.2786 8.7019H10.1395V9.77149H12.2786V8.7019Z" fill="black"/>
<path d="M12.2786 10.8411H10.1395V11.9106H12.2786V10.8411Z" fill="black"/>
<path d="M19.7658 7.09753H18.6962C18.6958 7.3811 18.583 7.65296 18.3825 7.85347C18.182 8.05399 17.9102 8.16678 17.6266 8.16712V9.2367C18.1937 9.23607 18.7375 9.01048 19.1385 8.60945C19.5395 8.20842 19.7651 7.66468 19.7658 7.09753Z" fill="black"/>
<path d="M22.4398 9.77149V8.70191C22.1562 8.70157 21.8843 8.58878 21.6838 8.38826C21.4833 8.18775 21.3705 7.91589 21.3702 7.63232H20.3006C20.3012 8.19947 20.5268 8.74321 20.9279 9.14424C21.3289 9.54527 21.8726 9.77086 22.4398 9.77149Z" fill="black"/>
<path d="M28.0544 33.0505C27.1516 33.2146 26.2307 33.2558 25.3168 33.1728L16.0181 32.3274C15.8687 32.3138 15.7302 32.2431 15.6315 32.13C15.5329 32.0169 15.4816 31.8702 15.4883 31.7202C15.4951 31.5703 15.5594 31.4287 15.6679 31.325C15.7763 31.2212 15.9206 31.1633 16.0707 31.1632H23.2418C23.5965 31.1626 23.9364 31.0214 24.1871 30.7705C24.4377 30.5196 24.5786 30.1796 24.5788 29.8249V29.8124C24.5782 29.5314 24.4871 29.2581 24.3188 29.033L23.0944 27.4011C23.0168 27.2972 22.9747 27.1711 22.9745 27.0415V26.9498C22.9744 26.8312 23.0096 26.7152 23.0755 26.6166C23.1414 26.518 23.235 26.4411 23.3446 26.3957C23.4542 26.3504 23.5748 26.3385 23.6911 26.3616C23.8074 26.3848 23.9142 26.4419 23.9981 26.5257L26.3398 28.8674C26.3895 28.9171 26.4485 28.9565 26.5133 28.9833C26.5782 29.0102 26.6478 29.024 26.718 29.024H32.6007V27.9544H26.9395L24.7545 25.7693C24.6995 25.7145 24.6408 25.6635 24.5788 25.6167V13.5151C24.5788 13.3732 24.5225 13.2372 24.4222 13.1369C24.3219 13.0366 24.1859 12.9803 24.044 12.9803H23.5092V11.3759H24.3114C24.8079 11.3759 25.2839 11.1787 25.635 10.8277C25.986 10.4766 26.1832 10.0005 26.1832 9.50412C26.1832 9.00769 25.986 8.5316 25.635 8.18057C25.2839 7.82955 24.8079 7.63234 24.3114 7.63234H24.2561C24.5239 7.31152 24.6616 6.90194 24.642 6.48452C24.6224 6.06711 24.447 5.67222 24.1504 5.37786C23.8538 5.0835 23.4576 4.91108 23.04 4.89467C22.6225 4.87826 22.214 5.01905 21.8952 5.28922C21.8446 4.7595 21.5984 4.26766 21.2046 3.90973C20.8109 3.55179 20.2978 3.35346 19.7657 3.35346C19.2336 3.35346 18.7205 3.55179 18.3268 3.90973C17.933 4.26766 17.6868 4.7595 17.6362 5.28922C17.3174 5.01905 16.9089 4.87826 16.4914 4.89467C16.0738 4.91108 15.6776 5.0835 15.381 5.37786C15.0844 5.67222 14.909 6.06711 14.8894 6.48452C14.8698 6.90194 15.0075 7.31152 15.2752 7.63234H15.22C14.9424 7.63209 14.6683 7.69392 14.4178 7.8133V5.49318C14.4178 4.64216 14.0797 3.826 13.478 3.22425C12.8762 2.62249 12.06 2.28442 11.209 2.28442C10.358 2.28442 9.54185 2.62249 8.94009 3.22425C8.33834 3.826 8.00027 4.64216 8.00027 5.49318V12.9803H7.46548C7.32364 12.9803 7.18762 13.0366 7.08733 13.1369C6.98703 13.2372 6.93069 13.3732 6.93069 13.5151V15.8667L4.05892 18.3282H0.513184V19.3978H4.25673C4.38438 19.3978 4.50782 19.3521 4.60474 19.269L7.7044 16.6122C8.02306 16.3392 8.42879 16.1891 8.84839 16.189C8.89219 16.189 8.93501 16.202 8.97143 16.2264C9.00785 16.2507 9.03623 16.2853 9.05299 16.3258C9.06975 16.3662 9.07413 16.4108 9.06558 16.4537C9.05702 16.4967 9.03593 16.5361 9.00495 16.5671L7.08732 18.4848C7.01252 18.5596 6.96158 18.6549 6.94095 18.7586C6.92031 18.8624 6.9309 18.9699 6.97138 19.0676C7.01186 19.1654 7.08041 19.2489 7.16836 19.3076C7.25631 19.3664 7.35971 19.3978 7.46548 19.3978H13.0808C13.1517 19.3978 13.2197 19.4259 13.2699 19.4761C13.32 19.5262 13.3482 19.5942 13.3482 19.6652C13.3482 19.7361 13.32 19.8041 13.2699 19.8542C13.2197 19.9044 13.1517 19.9326 13.0808 19.9326H9.06986C8.92802 19.9326 8.79199 19.9889 8.6917 20.0892C8.59141 20.1895 8.53506 20.3255 8.53506 20.4674C8.53506 20.6092 8.59141 20.7452 8.6917 20.8455C8.79199 20.9458 8.92802 21.0021 9.06986 21.0021H14.6852C14.7561 21.0021 14.8241 21.0303 14.8743 21.0805C14.9244 21.1306 14.9526 21.1986 14.9526 21.2695C14.9526 21.3405 14.9244 21.4085 14.8743 21.4586C14.8241 21.5088 14.7561 21.5369 14.6852 21.5369H9.06986C8.92802 21.5369 8.79199 21.5933 8.6917 21.6936C8.59141 21.7939 8.53506 21.9299 8.53506 22.0717C8.53506 22.2136 8.59141 22.3496 8.6917 22.4499C8.79199 22.5502 8.92802 22.6065 9.06986 22.6065H13.6156C13.6865 22.6065 13.7545 22.6347 13.8047 22.6848C13.8548 22.735 13.883 22.803 13.883 22.8739C13.883 22.9448 13.8548 23.0128 13.8047 23.063C13.7545 23.1131 13.6865 23.1413 13.6156 23.1413H9.06986C8.92802 23.1413 8.79199 23.1977 8.6917 23.298C8.59141 23.3982 8.53506 23.5343 8.53506 23.6761C8.53506 23.8179 8.59141 23.954 8.6917 24.0543C8.79199 24.1546 8.92802 24.2109 9.06986 24.2109H11.7104C11.7186 24.2113 11.7264 24.2147 11.7322 24.2205C11.7381 24.2263 11.7416 24.234 11.7421 24.2422C11.7426 24.2504 11.7401 24.2585 11.735 24.265C11.7299 24.2715 11.7226 24.2758 11.7145 24.2772L8.04212 24.7363L4.4038 23.6967C4.35597 23.683 4.30647 23.6761 4.25673 23.6761H0.513184V24.7457H4.18186L6.93069 25.5311V30.6284H6.93196C6.93145 30.6987 6.9449 30.7683 6.97152 30.8334C6.99813 30.8984 7.03739 30.9575 7.08702 31.0072C7.13665 31.057 7.19565 31.0964 7.26062 31.1232C7.32558 31.1499 7.39522 31.1635 7.46548 31.1632H14.5247C14.4347 31.4015 14.401 31.6573 14.4262 31.9108C14.4515 32.1642 14.535 32.4084 14.6702 32.6242C14.8054 32.8401 14.9887 33.0218 15.2057 33.155C15.4228 33.2883 15.6677 33.3696 15.9213 33.3926L25.22 34.2382C25.5584 34.2691 25.8973 34.2845 26.2367 34.2844C26.9105 34.2844 27.5829 34.2238 28.2458 34.1033L32.6964 33.2941L32.505 32.2417L28.0544 33.0505ZM13.3482 10.8411C13.3484 10.6993 13.4047 10.5634 13.505 10.4631C13.6053 10.3629 13.7412 10.3065 13.883 10.3063H14.9526C15.5197 10.3069 16.0635 10.5325 16.4645 10.9336C16.8655 11.3346 17.0911 11.8783 17.0917 12.4455C17.0916 12.5873 17.0352 12.7232 16.9349 12.8235C16.8347 12.9237 16.6987 12.9801 16.5569 12.9803H15.4874C14.9202 12.9796 14.3765 12.754 13.9754 12.353C13.5744 11.952 13.3488 11.4082 13.3482 10.8411ZM15.22 8.70193H16.5569C16.6627 8.70193 16.7661 8.67057 16.8541 8.61181C16.942 8.55304 17.0106 8.46952 17.051 8.3718C17.0915 8.27407 17.1021 8.16654 17.0815 8.0628C17.0608 7.95906 17.0099 7.86376 16.9351 7.78897L16.1329 6.98678C16.0772 6.9311 16.0331 6.86499 16.0029 6.79224C15.9728 6.71949 15.9573 6.64151 15.9573 6.56276C15.9573 6.48401 15.9728 6.40603 16.0029 6.33328C16.0331 6.26053 16.0772 6.19442 16.1329 6.13874C16.1886 6.08305 16.2547 6.03888 16.3275 6.00875C16.4002 5.97861 16.4782 5.9631 16.5569 5.9631C16.6357 5.9631 16.7137 5.97861 16.7864 6.00875C16.8592 6.03888 16.9253 6.08305 16.981 6.13874L17.7832 6.94093C17.8579 7.01572 17.9532 7.06666 18.057 7.0873C18.1607 7.10793 18.2683 7.09734 18.366 7.05686C18.4637 7.01638 18.5472 6.94783 18.606 6.85989C18.6648 6.77194 18.6961 6.66854 18.6961 6.56276V5.49318C18.6961 5.2095 18.8088 4.93745 19.0094 4.73687C19.21 4.53628 19.482 4.42359 19.7657 4.42359C20.0494 4.42359 20.3214 4.53628 20.522 4.73687C20.7226 4.93745 20.8353 5.2095 20.8353 5.49318V6.56276C20.8353 6.66854 20.8666 6.77194 20.9254 6.85989C20.9842 6.94783 21.0677 7.01638 21.1654 7.05686C21.2631 7.09734 21.3707 7.10793 21.4744 7.0873C21.5782 7.06666 21.6734 7.01572 21.7482 6.94093L22.5504 6.13874C22.6061 6.08305 22.6722 6.03888 22.745 6.00875C22.8177 5.97861 22.8957 5.9631 22.9745 5.9631C23.0532 5.9631 23.1312 5.97861 23.2039 6.00875C23.2767 6.03888 23.3428 6.08305 23.3985 6.13874C23.4542 6.19442 23.4983 6.26053 23.5285 6.33328C23.5586 6.40603 23.5741 6.48401 23.5741 6.56276C23.5741 6.64151 23.5586 6.71949 23.5285 6.79224C23.4983 6.86499 23.4542 6.9311 23.3985 6.98678L22.5963 7.78897C22.5215 7.86376 22.4706 7.95906 22.4499 8.0628C22.4293 8.16654 22.4399 8.27407 22.4803 8.3718C22.5208 8.46952 22.5894 8.55304 22.6773 8.61181C22.7653 8.67057 22.8687 8.70193 22.9745 8.70193H24.3114C24.5242 8.70193 24.7282 8.78644 24.8787 8.93688C25.0291 9.08732 25.1136 9.29136 25.1136 9.50412C25.1136 9.71687 25.0291 9.92091 24.8787 10.0713C24.7282 10.2218 24.5242 10.3063 24.3114 10.3063H22.9745C22.8326 10.3063 22.6966 10.3626 22.5963 10.4629C22.496 10.5632 22.4397 10.6993 22.4397 10.8411V11.1259C21.8156 10.5655 20.9966 10.2723 20.1587 10.3095C19.3208 10.3466 18.5309 10.7111 17.9589 11.3245C17.7297 10.7119 17.3191 10.1839 16.782 9.81084C16.2448 9.43779 15.6066 9.23751 14.9526 9.23672H14.4646C14.5199 9.08052 14.6222 8.94527 14.7575 8.84952C14.8927 8.75377 15.0543 8.70222 15.22 8.70193ZM22.3719 12.9803H18.229C18.3475 12.5209 18.6152 12.1139 18.9902 11.8233C19.3652 11.5328 19.8261 11.3751 20.3005 11.3751C20.7749 11.3751 21.2358 11.5328 21.6108 11.8233C21.9858 12.1139 22.2535 12.5209 22.3719 12.9803ZM9.06986 5.49318C9.06986 4.92583 9.29523 4.38173 9.6964 3.98056C10.0976 3.57938 10.6417 3.35401 11.209 3.35401C11.7764 3.35401 12.3205 3.57938 12.7216 3.98056C13.1228 4.38173 13.3482 4.92583 13.3482 5.49318V9.3287C13.0356 9.43961 12.7651 9.64451 12.5736 9.91528C12.3821 10.1861 12.279 10.5094 12.2786 10.8411C12.278 11.6309 12.57 12.393 13.0982 12.9803H9.06986V5.49318ZM10.1394 14.0498H11.209V18.3282H10.1394V14.0498ZM8.84839 15.1194C8.56068 15.1196 8.27468 15.1636 8.00027 15.2501V14.0498H9.06986V15.1398C8.99676 15.1267 8.92266 15.1199 8.84839 15.1194ZM9.06986 18.0149V18.3282H8.75654L9.06986 18.0149ZM10.1394 25.552L11.209 25.4183V29.3372L10.1394 28.2676V25.552ZM8.06659 25.8111L9.06986 25.6857V28.2677L8.00027 29.3373V25.8153C8.02244 25.8153 8.04459 25.8139 8.06659 25.8111ZM8.75654 30.0936L9.60465 29.2455L10.4528 30.0936H8.75654ZM12.2786 25.188C12.4415 25.09 12.5762 24.9516 12.6699 24.7863C12.7636 24.621 12.813 24.4342 12.8134 24.2442C12.8134 24.233 12.8134 24.2219 12.8129 24.2108H13.6156C13.8156 24.2107 14.0131 24.1657 14.1934 24.0792C14.3738 23.9927 14.5324 23.8668 14.6577 23.7109C14.783 23.555 14.8717 23.3729 14.9173 23.1781C14.9629 22.9834 14.9643 22.7809 14.9213 22.5855C15.2501 22.5266 15.545 22.3466 15.7478 22.0811C15.9506 21.8156 16.0466 21.4838 16.017 21.151C15.9874 20.8182 15.8343 20.5086 15.5878 20.2831C15.3413 20.0576 15.0193 19.9325 14.6852 19.9326H14.391C14.4305 19.7383 14.4263 19.5377 14.3788 19.3453C14.3313 19.1528 14.2416 18.9734 14.1162 18.8198C13.9908 18.6663 13.8329 18.5425 13.6538 18.4575C13.4747 18.3725 13.279 18.3283 13.0808 18.3282H12.2786V14.0498H23.5092V25.2822C23.0783 25.2994 22.6707 25.4826 22.3717 25.7934C22.0727 26.1042 21.9055 26.5185 21.9049 26.9498V27.0415C21.9056 27.4026 22.0229 27.7539 22.2391 28.0431L23.4635 29.6749C23.4932 29.7146 23.5093 29.7628 23.5094 29.8124V29.8249C23.5095 29.896 23.4814 29.9643 23.4312 30.0146C23.3811 30.065 23.3129 30.0934 23.2418 30.0936H12.2786V25.188Z" fill="black"/>
<path d="M45.2377 14.2844V3.62036H48.248C49.1757 3.62036 49.996 3.82544 50.7089 4.2356C51.4218 4.64575 51.9711 5.22925 52.3569 5.98608C52.7475 6.74292 52.9453 7.61206 52.9501 8.59351V9.27466C52.9501 10.2805 52.7548 11.1619 52.3642 11.9187C51.9785 12.6755 51.4243 13.2566 50.7016 13.6619C49.9838 14.0671 49.1464 14.2747 48.1894 14.2844H45.2377ZM46.644 4.77759V13.1345H48.1235C49.2075 13.1345 50.0497 12.7976 50.6503 12.1238C51.2558 11.45 51.5585 10.4905 51.5585 9.24536V8.6228C51.5585 7.41187 51.2729 6.47192 50.7016 5.80298C50.1352 5.12915 49.3295 4.78735 48.2846 4.77759H46.644ZM58.1577 14.4309C57.0834 14.4309 56.2094 14.0793 55.5356 13.3762C54.8618 12.6682 54.5248 11.7234 54.5248 10.5417V10.2927C54.5248 9.50659 54.6738 8.80591 54.9716 8.19067C55.2744 7.57056 55.6943 7.08716 56.2314 6.74048C56.7734 6.38892 57.3593 6.21313 57.9892 6.21313C59.0195 6.21313 59.8203 6.55249 60.3915 7.2312C60.9628 7.90991 61.2485 8.88159 61.2485 10.1462V10.7102H55.8798C55.8994 11.4915 56.1264 12.1238 56.561 12.6072C57.0004 13.0857 57.5571 13.325 58.2309 13.325C58.7094 13.325 59.1147 13.2273 59.4467 13.032C59.7787 12.8367 60.0693 12.5779 60.3183 12.2556L61.1459 12.9001C60.4819 13.9207 59.4858 14.4309 58.1577 14.4309ZM57.9892 7.32642C57.4423 7.32642 56.9833 7.52661 56.6122 7.927C56.2411 8.32251 56.0117 8.87915 55.9238 9.59692H59.8935V9.49438C59.8544 8.80591 59.6689 8.27368 59.3369 7.89771C59.0048 7.51685 58.5556 7.32642 57.9892 7.32642ZM64.2953 14.2844H62.9404V3.03442H64.2953V14.2844ZM67.9428 14.2844H66.5878V6.35962H67.9428V14.2844ZM66.478 4.25757C66.478 4.03784 66.5439 3.85229 66.6757 3.70093C66.8124 3.54956 67.0126 3.47388 67.2763 3.47388C67.54 3.47388 67.7402 3.54956 67.8769 3.70093C68.0136 3.85229 68.082 4.03784 68.082 4.25757C68.082 4.47729 68.0136 4.6604 67.8769 4.80688C67.7402 4.95337 67.54 5.02661 67.2763 5.02661C67.0126 5.02661 66.8124 4.95337 66.6757 4.80688C66.5439 4.6604 66.478 4.47729 66.478 4.25757ZM72.7328 12.446L74.6957 6.35962H76.08L73.2382 14.2844H72.2055L69.3344 6.35962H70.7187L72.7328 12.446ZM80.5698 14.4309C79.4955 14.4309 78.6215 14.0793 77.9477 13.3762C77.2739 12.6682 76.937 11.7234 76.937 10.5417V10.2927C76.937 9.50659 77.0859 8.80591 77.3837 8.19067C77.6865 7.57056 78.1064 7.08716 78.6435 6.74048C79.1855 6.38892 79.7714 6.21313 80.4013 6.21313C81.4316 6.21313 82.2324 6.55249 82.8036 7.2312C83.3749 7.90991 83.6606 8.88159 83.6606 10.1462V10.7102H78.2919C78.3115 11.4915 78.5385 12.1238 78.9731 12.6072C79.4125 13.0857 79.9692 13.325 80.643 13.325C81.1215 13.325 81.5268 13.2273 81.8588 13.032C82.1909 12.8367 82.4814 12.5779 82.7304 12.2556L83.558 12.9001C82.894 13.9207 81.8979 14.4309 80.5698 14.4309ZM80.4013 7.32642C79.8544 7.32642 79.3954 7.52661 79.0244 7.927C78.6533 8.32251 78.4238 8.87915 78.3359 9.59692H82.3056V9.49438C82.2665 8.80591 82.081 8.27368 81.749 7.89771C81.4169 7.51685 80.9677 7.32642 80.4013 7.32642ZM89.0659 7.57544C88.8608 7.54126 88.6386 7.52417 88.3994 7.52417C87.5107 7.52417 86.9077 7.90259 86.5903 8.65942V14.2844H85.2353V6.35962H86.5536L86.5756 7.27515C87.02 6.56714 87.6498 6.21313 88.4653 6.21313C88.7289 6.21313 88.9291 6.24731 89.0659 6.31567V7.57544ZM93.0429 12.2996L94.8886 6.35962H96.3388L93.1528 15.5076C92.6596 16.8259 91.8759 17.4851 90.8017 17.4851L90.5453 17.4631L90.04 17.3679V16.2693L90.4062 16.2986C90.8652 16.2986 91.2216 16.2058 91.4755 16.0203C91.7343 15.8347 91.9467 15.4954 92.1127 15.0022L92.413 14.1965L89.5859 6.35962H91.0654L93.0429 12.2996ZM51.1191 27.575H46.644V32.2844H45.2377V21.6204H51.8442V22.7776H46.644V26.425H51.1191V27.575ZM52.7963 28.2488C52.7963 27.4724 52.9477 26.7742 53.2504 26.1541C53.558 25.5339 53.9828 25.0554 54.5248 24.7185C55.0717 24.3816 55.6943 24.2131 56.3925 24.2131C57.4716 24.2131 58.3432 24.5867 59.0073 25.3337C59.6762 26.0808 60.0107 27.0745 60.0107 28.3147V28.4099C60.0107 29.1814 59.8618 29.8748 59.5639 30.49C59.2709 31.1003 58.8486 31.5764 58.2968 31.9182C57.7499 32.26 57.1201 32.4309 56.4072 32.4309C55.3329 32.4309 54.4614 32.0574 53.7924 31.3103C53.1284 30.5632 52.7963 29.5745 52.7963 28.344V28.2488ZM54.1586 28.4099C54.1586 29.2888 54.3613 29.9944 54.7665 30.5266C55.1767 31.0588 55.7236 31.325 56.4072 31.325C57.0956 31.325 57.6425 31.0564 58.0478 30.5193C58.4531 29.9773 58.6557 29.2205 58.6557 28.2488C58.6557 27.3796 58.4482 26.6765 58.0331 26.1394C57.623 25.5974 57.0761 25.3264 56.3925 25.3264C55.7236 25.3264 55.184 25.5925 54.7739 26.1248C54.3637 26.657 54.1586 27.4187 54.1586 28.4099ZM61.351 28.2488C61.351 27.4724 61.5024 26.7742 61.8051 26.1541C62.1127 25.5339 62.5375 25.0554 63.0795 24.7185C63.6264 24.3816 64.249 24.2131 64.9472 24.2131C66.0263 24.2131 66.8979 24.5867 67.562 25.3337C68.2309 26.0808 68.5654 27.0745 68.5654 28.3147V28.4099C68.5654 29.1814 68.4164 29.8748 68.1186 30.49C67.8256 31.1003 67.4033 31.5764 66.8515 31.9182C66.3046 32.26 65.6747 32.4309 64.9619 32.4309C63.8876 32.4309 63.0161 32.0574 62.3471 31.3103C61.683 30.5632 61.351 29.5745 61.351 28.344V28.2488ZM62.7133 28.4099C62.7133 29.2888 62.916 29.9944 63.3212 30.5266C63.7314 31.0588 64.2783 31.325 64.9619 31.325C65.6503 31.325 66.1972 31.0564 66.6025 30.5193C67.0078 29.9773 67.2104 29.2205 67.2104 28.2488C67.2104 27.3796 67.0029 26.6765 66.5878 26.1394C66.1777 25.5974 65.6308 25.3264 64.9472 25.3264C64.2783 25.3264 63.7387 25.5925 63.3286 26.1248C62.9184 26.657 62.7133 27.4187 62.7133 28.4099ZM69.935 28.2561C69.935 27.0403 70.2231 26.0637 70.7993 25.3264C71.3754 24.5842 72.1298 24.2131 73.0624 24.2131C73.9902 24.2131 74.725 24.5305 75.267 25.1653V21.0344H76.622V32.2844H75.3769L75.311 31.4348C74.769 32.0989 74.0146 32.4309 73.0478 32.4309C72.1298 32.4309 71.3803 32.0549 70.7993 31.303C70.2231 30.551 69.935 29.5696 69.935 28.3586V28.2561ZM71.29 28.4099C71.29 29.3083 71.4755 30.0115 71.8466 30.5193C72.2177 31.0271 72.7304 31.281 73.3847 31.281C74.2441 31.281 74.8715 30.8953 75.267 30.1238V26.4836C74.8618 25.7366 74.2392 25.363 73.3994 25.363C72.7353 25.363 72.2177 25.6194 71.8466 26.1321C71.4755 26.6448 71.29 27.4041 71.29 28.4099Z" fill="black"/>
</svg>
